<svg width="1002" height="553" viewBox="0 0 1002 553" fill="none" xmlns="http://www.w3.org/2000/svg">
<g clip-path="url(#clip0_95_387)">
<path d="M1002 0H0V553H1002V0Z" fill="white"/>
<path d="M63 159.5L1.2673e-05 113L0 206L63 159.5Z" fill="#D7272D"/>
<path d="M5 335L68 382V288L5 335Z" fill="#D7272D"/>
<path d="M5 218.5L68 265V172L5 218.5Z" fill="#D7272D"/>
<path d="M63 393L1.2673e-05 346L0 440L63 393Z" fill="#D7272D"/>
<path d="M63 276.5L1.2673e-05 230L0 323L63 276.5Z" fill="#D7272D"/>
<path d="M219 276.5L156 230V323L219 276.5Z" fill="#D7272D"/>
<path d="M83 277L146 324V230L83 277Z" fill="#D7272D"/>
<path d="M141 335L78 288V382L141 335Z" fill="#D7272D"/>
<path d="M141 218.5L78 172V265L141 218.5Z" fill="#D7272D"/>
<path d="M941 386.5L1002 432V341L941 386.5Z" fill="#D7272D"/>
<path d="M997 214.5L936 169V260L997 214.5Z" fill="#D7272D"/>
<path d="M997 329.5L936 284V375L997 329.5Z" fill="#D7272D"/>
<path d="M941 158.5L1002 204V113L941 158.5Z" fill="#D7272D"/>
<path d="M941 272L1002 318V226L941 272Z" fill="#D7272D"/>
<path d="M791 272L852 318V226L791 272Z" fill="#D7272D"/>
<path d="M922 271.5L861 226V317L922 271.5Z" fill="#D7272D"/>
<path d="M866 214.5L927 260V169L866 214.5Z" fill="#D7272D"/>
<path d="M866 329.5L927 375V284L866 329.5Z" fill="#D7272D"/>
</g>
<defs>
<clipPath id="clip0_95_387">
<rect width="1002" height="553" fill="white"/>
</clipPath>
</defs>
</svg>
