<svg width="91" height="91" viewBox="0 0 91 91" fill="none" xmlns="http://www.w3.org/2000/svg">
<g clip-path="url(#clip0_45_19404)">
<path d="M79.5226 74.6559C79.5427 74.6257 79.5729 74.5955 79.593 74.5653C86.183 66.7277 90.1471 56.6264 90.1471 45.5894C90.1471 34.5525 86.183 24.4512 79.6031 16.6136C79.583 16.5834 79.5528 16.5633 79.5327 16.5331C79.422 16.4023 79.3214 16.2816 79.2107 16.1608C79.1705 16.1105 79.1302 16.0703 79.09 16.02L78.6775 15.5471L78.6674 15.5371C78.5165 15.366 78.3555 15.195 78.2046 15.0239L78.1946 15.0139C77.8726 14.6718 77.5507 14.3297 77.2186 13.9977L77.2086 13.9877L76.7256 13.5047L76.6955 13.4745C76.5445 13.3236 76.3936 13.1828 76.2427 13.0419C76.1924 12.9916 76.1421 12.9413 76.0817 12.891C75.9811 12.7904 75.8805 12.6998 75.7799 12.6093C75.7497 12.5791 75.7095 12.5489 75.6793 12.5087C67.6506 5.0635 56.8953 0.5159 45.0735 0.5159C33.2518 0.5159 22.4965 5.0635 14.4577 12.5087C14.4276 12.5389 14.3873 12.569 14.3571 12.6093C14.2565 12.6998 14.1559 12.8005 14.0553 12.9011C14.005 12.9514 13.9547 13.0017 13.8943 13.052C13.7434 13.1928 13.5925 13.3438 13.4416 13.4846L13.4114 13.5148L12.9285 13.9977L12.9184 14.0078C12.5864 14.3398 12.2644 14.6819 11.9425 15.0239L11.9324 15.034C11.7714 15.205 11.6205 15.3761 11.4696 15.5471L11.4595 15.5572C11.3187 15.7081 11.1778 15.8691 11.047 16.0301C11.0068 16.0804 10.9666 16.1206 10.9263 16.1709C10.8156 16.2916 10.715 16.4224 10.6044 16.5432C10.5842 16.5734 10.5541 16.5935 10.5339 16.6237C3.96406 24.4512 0 34.5525 0 45.5894C0 56.6264 3.96406 66.7277 10.544 74.5653C10.5641 74.5955 10.5943 74.6257 10.6144 74.6559L10.9263 75.0281C10.9666 75.0784 11.0068 75.1187 11.047 75.169L11.4595 75.6418C11.4595 75.6519 11.4696 75.6519 11.4696 75.662C11.6205 75.833 11.7714 76.004 11.9324 76.165L11.9425 76.1751C12.2644 76.5171 12.5864 76.8592 12.9083 77.1912L12.9184 77.2013C13.0794 77.3623 13.2303 77.5233 13.3913 77.6742L13.4215 77.7044C13.7535 78.0364 14.0955 78.3583 14.4376 78.6702C22.4965 86.1154 33.2518 90.663 45.0735 90.663C56.8953 90.663 67.6506 86.1154 75.6894 78.6702C76.0321 78.356 76.3676 78.034 76.6955 77.7044L76.7256 77.6742C76.8866 77.5132 77.0476 77.3623 77.1985 77.2013L77.2086 77.1912C77.5406 76.8592 77.8625 76.5171 78.1744 76.1751L78.1845 76.165C78.3354 75.994 78.4964 75.833 78.6473 75.662C78.6473 75.6519 78.6574 75.6519 78.6574 75.6418C78.7982 75.4909 78.9391 75.3299 79.0699 75.169C79.1101 75.1187 79.1504 75.0784 79.1906 75.0281C79.3044 74.9068 79.4151 74.7827 79.5226 74.6559ZM79.9351 60.3088C78.5467 63.5887 76.7156 66.6271 74.482 69.3839C71.9665 67.2099 69.2163 65.3235 66.2823 63.7597C67.4493 59.0411 68.1737 53.8596 68.3649 48.4065H82.8025C82.5007 52.5215 81.5348 56.5158 79.9351 60.3088ZM82.8025 42.7724H68.3649C68.1737 37.3193 67.4493 32.1378 66.2823 27.4192C69.2301 25.8496 71.9768 23.9582 74.482 21.795C79.3372 27.7711 82.2414 35.0931 82.8025 42.7724ZM59.7929 10.7279C63.7871 12.4181 67.4192 14.7523 70.6186 17.6901C68.76 19.2727 66.7594 20.6805 64.6423 21.8957C63.0627 17.3682 61.0404 13.4343 58.6862 10.2852C59.0584 10.426 59.4307 10.577 59.7929 10.7279ZM50.6776 81.2157C49.7519 81.9401 48.8263 82.4934 47.8906 82.8657V64.2024C51.8828 64.4809 55.8086 65.3699 59.5313 66.8384C58.6962 69.3134 57.7304 71.5973 56.6136 73.6598C54.863 76.9196 52.8105 79.5254 50.6776 81.2157ZM56.6136 17.5191C57.7203 19.5917 58.6962 21.8755 59.5313 24.3405C55.8086 25.809 51.8828 26.698 47.8906 26.9765V8.32328C48.8163 8.69554 49.7519 9.23884 50.6776 9.9733C52.8105 11.6535 54.863 14.2593 56.6136 17.5191ZM47.8906 58.5582V48.4065H62.7307C62.5697 52.8535 62.0164 57.1697 61.0908 61.2646L61.0606 61.3853C56.8383 59.7842 52.3981 58.831 47.8906 58.5582ZM47.8906 42.7724V32.6207C52.4986 32.339 56.9255 31.3631 61.0606 29.7936L61.0908 29.9143C62.0164 34.0092 62.5697 38.3153 62.7307 42.7724H47.8906ZM42.2565 48.4065V58.5582C37.6485 58.8399 33.2216 59.8158 29.0865 61.3853L29.0563 61.2646C28.1307 57.1697 27.5774 52.8636 27.4164 48.4065H42.2565ZM27.4164 42.7724C27.5774 38.3254 28.1307 34.0092 29.0563 29.9143L29.0865 29.7936C33.2216 31.3631 37.6384 32.339 42.2565 32.6207V42.7724H27.4164ZM42.2565 64.2024V82.8556C41.3308 82.4834 40.3952 81.9401 39.4695 81.2056C37.3366 79.5254 35.2741 76.9095 33.5235 73.6497C32.4167 71.5772 31.4408 69.2933 30.6057 66.8283C34.3485 65.3594 38.2421 64.4841 42.2565 64.2024ZM42.2565 26.9765C38.2643 26.698 34.3385 25.809 30.6158 24.3405C31.4509 21.8655 32.4167 19.5816 33.5335 17.5191C35.2841 14.2593 37.3366 11.6434 39.4796 9.96323C40.4052 9.23884 41.3308 8.68548 42.2665 8.31322V26.9765H42.2565ZM30.3542 10.7279C30.7265 10.577 31.0887 10.426 31.4609 10.2852C29.1066 13.4343 27.0844 17.3682 25.5048 21.8957C23.392 20.6883 21.3898 19.2798 19.5285 17.6901C22.7279 14.7523 26.36 12.4181 30.3542 10.7279ZM10.212 30.8701C11.6004 27.5902 13.4315 24.5518 15.6651 21.795C18.1703 23.9582 20.9169 25.8496 23.8648 27.4192C22.6978 32.1378 21.9734 37.3193 21.7822 42.7724H7.34457C7.64641 38.6574 8.61227 34.6631 10.212 30.8701ZM7.34457 48.4065H21.7822C21.9734 53.8596 22.6978 59.0411 23.8648 63.7597C20.9308 65.3235 18.1806 67.2099 15.6651 69.3839C10.8099 63.4078 7.90566 56.0858 7.34457 48.4065ZM30.3542 80.451C26.36 78.7608 22.7279 76.4266 19.5285 73.4888C21.3898 71.8991 23.392 70.5006 25.5048 69.2832C27.0844 73.8107 29.1066 77.7446 31.4609 80.8937C31.0887 80.7529 30.7164 80.6019 30.3542 80.451ZM59.7929 80.451C59.4206 80.6019 59.0584 80.7529 58.6862 80.8937C61.0404 77.7446 63.0627 73.8107 64.6423 69.2832C66.7551 70.4906 68.7573 71.8991 70.6186 73.4888C67.4369 76.4144 63.7747 78.7696 59.7929 80.451Z" fill="#D7272D"/>
</g>
<defs>
<clipPath id="clip0_45_19404">
<rect width="90.1471" height="90.1471" fill="white" transform="translate(0 0.5159)"/>
</clipPath>
</defs>
</svg>
