<svg width="140" height="141" viewBox="0 0 140 141" fill="none" xmlns="http://www.w3.org/2000/svg">
<path d="M69.9101 76.7837C74.796 76.7837 78.9304 75.0922 82.3133 71.7094C85.6961 68.3265 87.3876 64.1921 87.3876 59.3062C87.3876 54.4202 85.6961 50.2858 82.3133 46.903C78.9304 43.5201 74.796 41.8287 69.9101 41.8287C65.0241 41.8287 60.8897 43.5201 57.5069 46.903C54.124 50.2858 52.4326 54.4202 52.4326 59.3062C52.4326 64.1921 54.124 68.3265 57.5069 71.7094C60.8897 75.0922 65.0241 76.7837 69.9101 76.7837ZM32.718 117.116C30.0342 117.116 27.7951 116.219 26.0008 114.424C24.2064 112.63 23.3073 110.389 23.3034 107.701V33.3171C23.3034 30.6334 24.2025 28.3943 26.0008 26.5999C27.799 24.8056 30.0381 23.9065 32.718 23.9026H107.108C109.788 23.9026 112.027 24.8017 113.825 26.5999C115.623 28.3982 116.521 30.6373 116.517 33.3171V107.707C116.517 110.387 115.62 112.626 113.825 114.424C112.031 116.223 109.79 117.12 107.102 117.116H32.718ZM31.5936 111.29H108.227C109.05 110.774 109.611 110.086 109.91 109.228C110.209 108.369 110.47 107.569 110.691 106.827C105.448 101.681 99.3558 97.6285 92.4153 94.669C85.4748 91.7095 77.973 90.2297 69.9101 90.2297C61.8471 90.2297 54.3454 91.7095 47.4049 94.669C40.4644 97.6285 34.3725 101.683 29.1292 106.833C29.3545 107.571 29.6147 108.369 29.9099 109.228C30.2051 110.086 30.7663 110.774 31.5936 111.29Z" fill="#D7272D"/>
</svg>
