<svg width="1512" height="860" viewBox="0 0 1512 860" fill="none" xmlns="http://www.w3.org/2000/svg">
<rect x="0.000579834" width="1512" height="860" fill="white"/>
<path d="M118.346 228.415L1.62167e-07 143.496L-2.4186e-05 313.334L118.346 228.415Z" fill="#D7272D"/>
<path d="M9.63901 548.033L127.985 632.952L127.985 463.114L9.63901 548.033Z" fill="#D7272D"/>
<path d="M9.63901 335.4L127.985 420.319L127.985 250.481L9.63901 335.4Z" fill="#D7272D"/>
<path d="M118.346 653.68L1.62167e-07 568.761L-2.4186e-05 738.599L118.346 653.68Z" fill="#D7272D"/>
<path d="M118.346 441.048L1.62167e-07 356.128L-2.4186e-05 525.967L118.346 441.048Z" fill="#D7272D"/>
<path d="M156.367 442.385L274.713 527.304L274.713 357.466L156.367 442.385Z" fill="#D7272D"/>
<path d="M265.074 548.033L146.728 463.113L146.728 632.952L265.074 548.033Z" fill="#D7272D"/>
<path d="M265.074 335.4L146.728 250.481L146.728 420.319L265.074 335.4Z" fill="#D7272D"/>
<path d="M1393.37 654.184L1511.71 739.103L1511.71 569.265L1393.37 654.184Z" fill="#D7272D"/>
<path d="M1502.07 334.567L1383.73 249.647L1383.73 419.486L1502.07 334.567Z" fill="#D7272D"/>
<path d="M1502.07 547.199L1383.73 462.28L1383.73 632.118L1502.07 547.199Z" fill="#D7272D"/>
<path d="M1393.37 228.919L1511.71 313.839L1511.71 144L1393.37 228.919Z" fill="#D7272D"/>
<path d="M1393.37 441.552L1511.71 526.471L1511.71 356.632L1393.37 441.552Z" fill="#D7272D"/>
<path d="M1355.35 440.214L1237 355.295L1237 525.133L1355.35 440.214Z" fill="#D7272D"/>
<path d="M1246.64 334.567L1364.99 419.486L1364.99 249.647L1246.64 334.567Z" fill="#D7272D"/>
<path d="M1246.64 547.199L1364.99 632.118L1364.99 462.28L1246.64 547.199Z" fill="#D7272D"/>
</svg>
