<svg width="114" height="114" viewBox="0 0 114 114" fill="none" xmlns="http://www.w3.org/2000/svg">
<path d="M9.05086 34.4224C9.05086 30.2026 10.7272 26.1556 13.711 23.1717C16.6949 20.1879 20.7419 18.5115 24.9617 18.5115H92.1408C96.3606 18.5115 100.408 20.1879 103.392 23.1717C106.375 26.1556 108.052 30.2026 108.052 34.4224V87.4585C108.052 91.6784 106.375 95.7253 103.392 98.7092C100.408 101.693 96.3606 103.369 92.1408 103.369H60.3191C60.0646 103.038 59.7907 102.721 59.4988 102.422L50.6595 93.586C52.3213 90.121 53.2477 86.2422 53.2477 82.1549H69.1585C70.0962 82.1549 70.9956 81.7824 71.6587 81.1193C72.3217 80.4563 72.6942 79.5569 72.6942 78.6192C72.6942 77.6814 72.3217 76.7821 71.6587 76.119C70.9956 75.456 70.0962 75.0834 69.1585 75.0834H52.293C51.2026 71.1484 49.2181 67.5184 46.4944 64.4762H79.7657C80.7035 64.4762 81.6028 64.1037 82.2659 63.4406C82.929 62.7775 83.3015 61.8782 83.3015 60.9405C83.3015 60.0027 82.929 59.1034 82.2659 58.4403C81.6028 57.7772 80.7035 57.4047 79.7657 57.4047H36.269C33.225 56.2338 29.9911 55.6345 26.7296 55.6368C19.941 55.6368 13.7428 58.1897 9.05086 62.3901V34.4224ZM30.2653 43.2617C30.2653 44.1995 30.6378 45.0988 31.3009 45.7619C31.964 46.425 32.8633 46.7975 33.8011 46.7975H58.5513C59.489 46.7975 60.3883 46.425 61.0514 45.7619C61.7145 45.0988 62.087 44.1995 62.087 43.2617C62.087 42.324 61.7145 41.4247 61.0514 40.7616C60.3883 40.0985 59.489 39.726 58.5513 39.726H33.8011C32.8633 39.726 31.964 40.0985 31.3009 40.7616C30.6378 41.4247 30.2653 42.324 30.2653 43.2617ZM26.7296 103.369C31.3119 103.369 35.5548 101.92 39.0198 99.4447L50.7479 111.173C51.4147 111.817 52.3079 112.173 53.2349 112.165C54.162 112.157 55.0488 111.785 55.7044 111.13C56.3599 110.474 56.7318 109.587 56.7398 108.66C56.7479 107.733 56.3915 106.84 55.7474 106.173L44.0229 94.4487C46.7788 90.5729 48.1526 85.8835 47.9236 81.1333C47.6945 76.3831 45.8761 71.8477 42.7601 68.255C39.6441 64.6623 35.4113 62.2208 30.7412 61.3224C26.0711 60.424 21.2346 61.1209 17.0081 63.3011C12.7815 65.4814 9.41018 69.0185 7.43516 73.3447C5.46015 77.6709 4.99605 82.5353 6.11737 87.1569C7.23869 91.7786 9.88038 95.8894 13.6184 98.8295C17.3564 101.77 21.9739 103.368 26.7296 103.369ZM26.7296 96.2979C22.9786 96.2979 19.3813 94.8078 16.729 92.1555C14.0767 89.5032 12.5866 85.9059 12.5866 82.1549C12.5866 78.404 14.0767 74.8067 16.729 72.1543C19.3813 69.502 22.9786 68.012 26.7296 68.012C30.4805 68.012 34.0779 69.502 36.7302 72.1543C39.3825 74.8067 40.8726 78.404 40.8726 82.1549C40.8726 85.9059 39.3825 89.5032 36.7302 92.1555C34.0779 94.8078 30.4805 96.2979 26.7296 96.2979Z" fill="#D7272D"/>
</svg>
