<svg width="369" height="75" viewBox="0 0 369 75" fill="none" xmlns="http://www.w3.org/2000/svg">
    <path d="M105.16 74.07C105.16 71.48 105.16 68.95 105.16 66.42C105.16 52.76 105.15 39.1 105.13 25.44C105.13 23.53 105.08 21.61 105.01 19.7C104.97 18.89 105.14 18.5 106.1 18.52C115.89 18.6 125.67 18.57 135.46 18.74C137.67 18.78 139.93 19.26 142.07 19.89C147.03 21.35 150.12 24.71 151.27 29.78C152.3 34.3 152.27 38.78 150.49 43.14C148.87 47.08 145.84 49.42 141.85 50.65C141.62 50.72 141.4 50.8 140.97 50.94C145.44 58.67 149.85 66.31 154.34 74.09C153.76 74.13 153.4 74.18 153.04 74.18C149.75 74.18 146.46 74.16 143.17 74.2C142.31 74.21 141.81 73.93 141.39 73.17C137.89 66.74 134.32 60.35 130.85 53.9C130.18 52.66 129.5 52.08 128 52.14C124.51 52.27 121 52.17 117.51 52.17C117.14 52.17 116.78 52.21 116.3 52.23V74.07H105.16ZM116.26 28.61C116.26 33.1 116.27 37.34 116.25 41.58C116.25 42.45 116.75 42.48 117.38 42.48C121.96 42.48 126.54 42.55 131.12 42.44C132.93 42.4 134.75 42.07 136.51 41.63C138.41 41.16 139.85 39.83 140.15 37.9C140.41 36.23 140.28 34.43 139.97 32.75C139.66 31.07 138.48 29.79 136.76 29.42C134.78 29 132.75 28.67 130.73 28.61C126.86 28.49 122.99 28.59 119.11 28.6C118.2 28.6 117.3 28.6 116.25 28.6L116.26 28.61Z" fill="black"/>
    <path d="M346.23 33.55V18.51C348.66 18.51 350.98 18.51 353.29 18.51C355.683 18.51 356.877 19.7167 356.87 22.13C356.87 25.5 356.91 28.88 356.85 32.25C356.83 33.26 357.16 33.55 358.13 33.52C360.67 33.46 363.21 33.49 365.75 33.5C366.45 33.5 367.15 33.57 367.98 33.62C367.98 36.08 368 38.44 367.93 40.8C367.93 40.99 367.27 41.31 366.91 41.32C363.91 41.38 360.92 41.39 357.92 41.39C357.3 41.39 356.89 41.48 356.9 42.26C356.93 47.92 356.91 53.59 356.97 59.25C356.97 60.23 357.19 61.24 357.45 62.19C358.1 64.54 359.61 65.76 362.02 65.93C364.01 66.08 366 66.15 368.07 66.27V73.97C368.07 73.97 367.96 74.1 367.9 74.1C363.95 74.05 359.97 74.26 356.06 73.88C350.72 73.36 347.23 69.63 346.52 64.23C346.32 62.67 346.27 61.08 346.27 59.5C346.24 53.92 346.26 48.34 346.26 42.75C346.26 42.3 346.26 41.85 346.26 41.39C341.34 41.39 336.52 41.39 331.71 41.39C331.04 41.39 330.87 41.67 330.87 42.3C330.89 48.42 330.88 54.55 330.87 60.67C330.86 64.79 330.81 68.92 330.79 73.04C330.79 73.68 330.79 74.18 329.91 74.17C326.75 74.14 323.59 74.16 320.36 74.16C320.31 73.83 320.23 73.56 320.22 73.28C320.2 62.95 320.17 52.62 320.18 42.29C320.18 41.5 319.88 41.38 319.23 41.39C317.44 41.41 315.65 41.34 313.86 41.42C312.77 41.47 312.48 41.01 312.5 40.03C312.53 38.24 312.54 36.45 312.46 34.66C312.42 33.78 312.73 33.45 313.58 33.47C315.29 33.49 317 33.38 318.7 33.5C319.87 33.58 320.14 33.12 320.13 32.09C320.13 30.26 320.16 28.42 320.24 26.59C320.28 25.76 320.39 24.93 320.58 24.13C321.42 20.68 323.46 18.93 327.43 18.72C331.58 18.5 335.75 18.6 339.92 18.53C340.67 18.52 340.86 18.89 340.87 19.52C340.88 21.48 340.88 23.44 340.91 25.39C340.92 26.21 340.55 26.42 339.76 26.43C337.72 26.44 335.68 26.46 333.66 26.67C331.89 26.85 331.12 27.75 330.92 29.52C330.81 30.55 330.76 31.6 330.83 32.63C330.85 32.95 331.37 33.48 331.67 33.49C336.46 33.54 341.25 33.53 346.24 33.53L346.23 33.55Z" fill="black"/>
    <path d="M201.9 54.93C201.9 58.09 201.9 61.25 201.9 64.41C201.9 67.33 201.88 70.24 201.9 73.16C201.9 73.8 201.81 74.19 201.04 74.18C197.84 74.16 194.64 74.18 191.35 74.18V18.51C194.04 18.51 196.7 18.48 199.35 18.51C202.38 18.56 201.92 18.24 201.92 21.13C201.92 30.38 201.92 39.62 201.93 48.87C201.93 50.19 201.93 51.5 201.93 53.03C202.27 52.76 202.51 52.63 202.67 52.44C207.89 46.39 213.09 40.31 218.34 34.29C218.71 33.86 219.47 33.56 220.05 33.55C223.13 33.49 226.21 33.55 229.29 33.57C230.11 33.57 230.93 33.57 232.18 33.57C225.88 40.27 219.84 46.7 213.78 53.14C219.87 60.1 225.92 67 232.14 74.1C231.58 74.13 231.17 74.17 230.75 74.17C227.08 74.17 223.42 74.13 219.75 74.2C218.62 74.22 217.92 73.81 217.23 72.97C212.6 67.29 207.93 61.65 203.26 55.99C202.93 55.58 202.57 55.19 202.23 54.79C202.11 54.83 202 54.88 201.88 54.92L201.9 54.93Z" fill="black"/>
    <path d="M232.51 74.17C232.51 71.74 232.58 69.45 232.48 67.17C232.43 65.98 232.77 65.59 233.99 65.6C240.4 65.66 246.82 65.63 253.23 65.62C254.35 65.62 255.48 65.55 256.6 65.45C259.15 65.22 260.3 64.08 260.33 61.82C260.36 59.58 259.09 58.15 256.64 57.94C254.53 57.76 252.4 57.8 250.28 57.71C246.96 57.57 243.6 57.65 240.32 57.18C234.95 56.42 232.82 54.2 232.17 48.85C231.91 46.7 231.98 44.4 232.42 42.28C233.49 37.19 237.37 33.98 242.88 33.74C248.78 33.48 254.7 33.56 260.62 33.51C262.91 33.49 265.2 33.57 267.49 33.51C268.56 33.48 268.85 33.89 268.83 34.89C268.78 36.8 268.8 38.72 268.86 40.64C268.89 41.56 268.57 41.87 267.63 41.86C261.3 41.83 254.97 41.85 248.64 41.88C247.48 41.88 246.3 41.94 245.18 42.19C243.91 42.48 242.9 43.22 242.75 44.7C242.59 46.34 243.26 47.93 244.62 48.47C245.68 48.89 246.86 49.12 248 49.17C251.78 49.32 255.58 49.29 259.36 49.47C260.71 49.54 262.09 49.88 263.37 50.33C268.67 52.19 271.32 56.8 270.67 62.8C270.32 66.08 269.27 69.05 266.81 71.37C264.85 73.22 262.53 74.19 259.81 74.19C251.19 74.19 242.57 74.19 233.94 74.19C233.49 74.19 233.04 74.19 232.52 74.19L232.51 74.17Z" fill="black"/>
    <path d="M314.38 53.92C314.48 60.23 312.7 65.8 307.98 70.13C304.6 73.23 300.76 74.12 295.87 74.55C295.01 74.62 294.52 74.66 293.57 74.68C292.94 74.69 292 74.65 291.02 74.63C284.33 74.53 279.22 71.86 275.92 66.37C271.58 59.14 270.9 51.41 274.77 43.63C277 39.15 280.62 36.2 285.32 34.66C292.05 32.45 298.69 32.65 305.01 36.1C310.19 38.92 312.99 43.49 314 49.2C314.27 50.75 314.26 52.34 314.37 53.92H314.38ZM283.14 53.55C283.3 55.24 283.36 56.49 283.55 57.72C284.23 62.36 287.65 65.82 291.89 66.23C297.31 66.75 301.43 64.36 302.97 59.59C304.16 55.9 304.16 52.11 302.96 48.42C301.46 43.84 298.03 41.62 292.9 41.7C288.67 41.76 285.22 44.38 283.96 48.71C283.47 50.4 283.37 52.21 283.15 53.56L283.14 53.55Z" fill="black"/>
    <path d="M187.89 74.17C183.14 74.17 178.64 74.23 174.15 74.15C171.62 74.1 169.05 74.04 166.57 73.56C159.92 72.28 155.37 68.45 153.48 61.83C151.99 56.61 151.78 51.33 153.27 46.06C155.32 38.81 160.36 34.76 167.6 34.03C174 33.39 180.49 33.67 186.93 33.53C187.65 33.51 187.89 33.86 187.9 34.51C187.9 36.63 187.91 38.76 187.94 40.88C187.95 41.78 187.45 41.85 186.72 41.84C182.22 41.82 177.72 41.82 173.22 41.86C171.85 41.87 170.47 41.94 169.12 42.16C165.79 42.7 163.68 45.45 164.03 48.78C164.06 49.05 164.67 49.46 165.03 49.47C166.86 49.54 168.69 49.49 170.53 49.49C175.86 49.51 181.19 49.57 186.52 49.54C187.68 49.54 187.94 49.98 187.9 51.02C187.82 52.98 187.78 54.94 187.84 56.89C187.87 57.87 187.57 58.17 186.58 58.16C179.62 58.12 172.67 58.14 165.71 58.14C164.49 58.14 163.97 58.73 164.15 59.91C164.17 60.03 164.18 60.16 164.2 60.28C164.7 63.79 166.23 65.29 169.81 65.4C175.3 65.56 180.8 65.62 186.3 65.63C187.58 65.63 187.95 66 187.9 67.26C187.8 69.5 187.87 71.74 187.87 74.17H187.89Z" fill="black"/>
    <path d="M49.5 0L96 73.5H0L49.5 0Z" fill="#D7272D"/>
    <path d="M76 64.5L96 73.5H0.248148L76 64.5Z" fill="black"/>
</svg>
