<svg width="99" height="99" viewBox="0 0 99 99" fill="none" xmlns="http://www.w3.org/2000/svg">
<path fill-rule="evenodd" clip-rule="evenodd" d="M29.5845 53.6249H24.75C21.4679 53.6249 18.3203 52.3211 15.9996 50.0004C13.6788 47.6796 12.375 44.532 12.375 41.2499C12.375 37.9679 13.6788 34.8202 15.9996 32.4995C18.3203 30.1787 21.4679 28.8749 24.75 28.8749C25.905 28.8749 26.4825 28.8749 26.8826 28.7924C28.1119 28.5449 28.6976 28.1695 29.4236 27.1465C29.6629 26.8165 30.0011 26.0658 30.6735 24.5643C32.3006 20.932 34.9438 17.8479 38.2843 15.684C41.6247 13.52 45.5199 12.3687 49.5 12.3687C53.4801 12.3687 57.3753 13.52 60.7157 15.684C64.0562 17.8479 66.6994 20.932 68.3265 24.5643C68.9989 26.0658 69.3371 26.8124 69.5764 27.1465C70.3065 28.1695 70.8881 28.549 72.1174 28.7965C72.5216 28.8749 73.0991 28.8749 74.25 28.8749C77.5321 28.8749 80.6797 30.1787 83.0005 32.4995C85.3212 34.8202 86.625 37.9679 86.625 41.2499C86.625 44.532 85.3212 47.6796 83.0005 50.0004C80.6797 52.3211 77.5321 53.6249 74.25 53.6249H69.4155L55.3327 39.5422L49.5 33.7094L43.6673 39.5422L29.5845 53.6249Z" fill="#D7272D"/>
<path d="M49.4999 49.5002L46.5835 46.5839L49.4999 43.6675L52.4162 46.5839L49.4999 49.5002ZM53.6249 86.6252C53.6249 87.7193 53.1903 88.7685 52.4167 89.5421C51.6431 90.3156 50.5939 90.7502 49.4999 90.7502C48.4059 90.7502 47.3566 90.3156 46.5831 89.5421C45.8095 88.7685 45.3749 87.7193 45.3749 86.6252H53.6249ZM30.0835 63.0839L46.5835 46.5839L52.4162 52.4166L35.9162 68.9166L30.0835 63.0839ZM52.4162 46.5839L68.9162 63.0839L63.0835 68.9166L46.5835 52.4166L52.4162 46.5839ZM53.6249 49.5002V86.6252H45.3749V49.5002H53.6249Z" fill="#D7272D"/>
</svg>
